<svg xmlns="http://www.w3.org/2000/svg" viewBox="0 0 24 24">
	<path d="M3.001 17.009h1.998v5.986H3.001V17.01z"/>
	<path d="M1.005 19H6.99V21H1.005v-1.998zM5 5v11H3V4.027a1 1 0 01.882-.993l.116-.007 7.988-.014L10 5H5zm7-5l3 3H9l3-3zm.014 3.014L19.998 3H20a1 1 0 01.993.883L21 4v15.998a1 1 0 01-.883.994l-.117.006H8V19h11V5h-5l-1.986-1.986z"/>
	<path d="M12 6c2.758 0 5 2.242 5 5 0 1.46-.628 2.775-1.628 3.69 1.845.853 2.574 2.205 2.625 2.304L18 17l-1 1s-2-2-5-2c-2.906 0-4.874 1.877-4.994 1.994L7 18l-1-1s.713-1.425 2.629-2.31A4.986 4.986 0 017 11c0-2.758 2.242-5 5-5zm0 2c-1.655 0-3 1.345-3 3 0 1.654 1.345 3 3 3s3-1.345 3-3-1.345-3-3-3z"/>
</svg>