<?xml version="1.0" encoding="UTF-8"?><!DOCTYPE svg PUBLIC "-//W3C//DTD SVG 1.1//EN" "http://www.w3.org/Graphics/SVG/1.1/DTD/svg11.dtd"><svg xmlns="http://www.w3.org/2000/svg" xmlns:xlink="http://www.w3.org/1999/xlink"><symbol id="account-fee-schedule" viewBox="0 0 24 24">
	<path d="M21,20 C21.5522847,20 22,20.4477153 22,21 C22,21.5522847 21.5522847,22 21,22 L3,22 C2.44771525,22 2,21.5522847 2,21 C2,20.4477153 2.44771525,20 3,20 L21,20 Z M21,17 C21.5522847,17 22,17.4477153 22,18 C22,18.5522847 21.5522847,19 21,19 L3,19 C2.44771525,19 2,18.5522847 2,18 C2,17.4477153 2.44771525,17 3,17 L21,17 Z M21,14 C21.5522847,14 22,14.4477153 22,15 C22,15.5522847 21.5522847,16 21,16 L3,16 C2.44771525,16 2,15.5522847 2,15 C2,14.4477153 2.44771525,14 3,14 L21,14 Z M12.9809069,2 L12.9809069,3.1127907 C13.725537,3.27906977 14.2840095,3.68837209 14.7995227,4.28953488 L14.7995227,4.28953488 L13.6109785,5.2872093 C13.0238663,4.69883721 12.7088305,4.49418605 12.0214797,4.49418605 C11.4486874,4.49418605 11.0763723,4.82674419 11.0763723,5.2744186 C11.0763723,5.81162791 11.4200477,6.08023256 12.5083532,6.60465116 C14.2410501,7.43604651 15,7.98604651 15,9.49534884 C15,10.6976744 14.2553699,11.5802326 12.9809069,11.8872093 L12.9809069,11.8872093 L12.9809069,13 L11.176611,13 L11.176611,11.9127907 C10.2458234,11.7081395 9.54415274,11.1837209 9,10.5825581 L9,10.5825581 L10.2171838,9.48255814 C10.8186158,10.1732558 11.4630072,10.505814 12.0644391,10.505814 C12.8090692,10.505814 13.1813842,10.1348837 13.1813842,9.53372093 C13.1813842,9.02209302 12.823389,8.67674419 11.6491647,8.13953488 C10.1599045,7.44883721 9.25775656,6.83488372 9.25775656,5.35116279 C9.25775656,4.26395349 9.98806683,3.39418605 11.176611,3.1127907 L11.176611,3.1127907 L11.176611,2 L12.9809069,2 Z"/>
</symbol><symbol id="account-sla-report" viewBox="0 0 24 24">
	<path d="M19.5,2 C20.82375,2 21.9099,3.0332 21.994674,4.335824 L22,4.5 L22,19.5 C22,20.82375 20.9668,21.9099 19.664176,21.994674 L19.5,22 L4.5,22 C3.17625,22 2.0901,20.9668 2.005326,19.664176 L2,19.5 L2,4.5 C2,3.17625 3.0332,2.0901 4.335824,2.005326 L4.5,2 L19.5,2 Z M4,19 C4,19.5128358 4.38604019,19.9355072 4.88337887,19.9932723 L5,20 L19,20 C19.5128358,20 19.9355072,19.6139598 19.9932723,19.1166211 L20,19 L4,19 Z M19,4 L5,4 C4.48716416,4 4.06449284,4.38604019 4.00672773,4.88337887 L4,5 L4,16.649 L16.041365,11.3205813 C16.1521546,11.2715453 16.2691961,11.255509 16.3814779,11.2682177 L16.3868776,11.2538611 L18.8675517,12.0732408 C19.1930894,12.1807676 19.3698221,12.5318357 19.2622953,12.8573734 C19.2554031,12.8782394 19.2474078,12.8987248 19.2383432,12.9187429 C19.0766071,13.2759173 18.6707343,13.4526603 18.2990727,13.3277614 L16.304,12.657 L4.253,18 L20,18 L20,5 C20,4.44771525 19.5522847,4 19,4 Z M13.8535534,5.14644661 C14.0271197,5.32001296 14.0464049,5.58943736 13.9114088,5.7843055 L13.8535534,5.85355339 L7.85355339,11.8535534 C7.78846601,11.9186408 7.70989859,11.9620324 7.62683782,11.9837282 L7.54261211,11.998192 L7.45738789,11.998192 C7.37233008,11.9909601 7.28877005,11.9620324 7.2156945,11.9114088 L7.14644661,11.8535534 L5.14644661,9.85355339 C4.95118446,9.65829124 4.95118446,9.34170876 5.14644661,9.14644661 C5.32001296,8.97288026 5.58943736,8.95359511 5.7843055,9.08859116 L5.85355339,9.14644661 L7.5,10.793 L13.1464466,5.14644661 C13.3417088,4.95118446 13.6582912,4.95118446 13.8535534,5.14644661 Z"/>
</symbol><symbol id="account" viewBox="0 0 24 24">
	<path d="M13.2556141,2 C13.8140988,2 14.2905682,2.40617067 14.3725835,2.95684437 L14.3725835,2.95684437 L14.4975591,3.79652412 C15.0287053,3.96055458 15.5403242,4.17145089 16.0285101,4.42921304 L16.0285101,4.42921304 L16.7119703,3.92540519 C17.1611013,3.59343878 17.7859793,3.64030463 18.1804335,4.03475884 L18.1804335,4.03475884 L19.9613357,5.815661 C20.3557899,6.21011521 20.4026557,6.83499317 20.0706893,7.28412419 L20.0706893,7.28412419 L19.5668815,7.96758446 C19.8285491,8.45577036 20.0394454,8.96738918 20.1995704,9.49853544 L20.1995704,9.49853544 L21.0353447,9.62351103 L21.151819,9.64700943 C21.6458959,9.77401177 21.9963735,10.2218875 22,10.7404804 L22,10.7404804 L22,13.2595196 C22,13.8140988 21.5899238,14.2905682 21.0392501,14.3725835 L21.0392501,14.3725835 L20.1995704,14.4975591 C20.0394454,15.0287053 19.8285491,15.5403242 19.5668815,16.0285101 L19.5668815,16.0285101 L20.0706893,16.7119703 C20.4026557,17.1611013 20.3557899,17.7859793 19.9613357,18.1804335 L19.9613357,18.1804335 L18.1804335,19.9613357 C17.7859793,20.3557899 17.1611013,20.4026557 16.7119703,20.0706893 L16.7119703,20.0706893 L16.0285101,19.5668815 C15.5403242,19.8285491 15.0287053,20.0394454 14.4975591,20.1995704 L14.4975591,20.1995704 L14.368678,21.0392501 C14.2866628,21.5899238 13.8140988,22 13.2556141,22 L13.2556141,22 L10.7365749,22 C10.1819957,22 9.70552626,21.5899238 9.62351103,21.0392501 L9.62351103,21.0392501 L9.49853544,20.1995704 C8.96738918,20.0394454 8.45577036,19.8285491 7.96758446,19.5668815 L7.96758446,19.5668815 L7.28412419,20.0706893 C6.83499317,20.4026557 6.21011521,20.3557899 5.815661,19.9613357 L5.815661,19.9613357 L4.03475884,18.1804335 C3.64030463,17.7859793 3.59343878,17.1611013 3.92540519,16.7119703 L3.92540519,16.7119703 L4.42921304,16.0285101 C4.1675454,15.5403242 3.95664909,15.0287053 3.79652412,14.4975591 L3.79652412,14.4975591 L2.96074985,14.3725835 C2.41007616,14.2905682 2,13.8180043 2,13.2595196 L2,13.2595196 L2,10.7404804 C2,10.1819957 2.41007616,9.70552626 2.95684437,9.62351103 L2.95684437,9.62351103 L3.79652412,9.49853544 C3.96055458,8.96738918 4.17145089,8.45577036 4.43311853,7.97148994 L4.43311853,7.97148994 L3.92931068,7.28802968 C3.59734427,6.83889865 3.64421012,6.2140207 4.03866432,5.81956649 L4.03866432,5.81956649 L5.815661,4.03475884 C6.21011521,3.64030463 6.83499317,3.59343878 7.28412419,3.92540519 L7.28412419,3.92540519 L7.96758446,4.42921304 C8.45577036,4.1675454 8.96738918,3.95664909 9.49853544,3.79652412 L9.49853544,3.79652412 L9.62351103,2.96074985 C9.70552626,2.40617067 10.1780902,2 10.7365749,2 L10.7365749,2 Z M12.9939465,3.42550283 L10.994337,3.42550283 L10.7639133,4.9603593 C9.70943175,5.1439172 8.73305995,5.55789885 7.88947471,6.1515329 L7.88947471,6.1515329 L6.6397188,5.22983792 L5.22593244,6.64362429 L6.14762742,7.8933802 C5.55399336,8.73696544 5.14001172,9.71333724 4.95645382,10.7678188 L4.95645382,10.7678188 L3.42159734,10.9982425 L3.42159734,12.997852 L4.95645382,13.2282757 C5.14001172,14.2827573 5.55399336,15.2591291 6.14762742,16.1027143 L6.14762742,16.1027143 L5.22593244,17.3524702 L6.6397188,18.7662566 L7.88947471,17.8445616 C8.73305995,18.4381957 9.70943175,18.8521773 10.7639133,19.0357352 L10.7639133,19.0357352 L10.994337,20.5705917 L12.9939465,20.5705917 L13.2243702,19.0357352 C14.2788518,18.8521773 15.2552236,18.4381957 16.0988088,17.8445616 L16.0988088,17.8445616 L17.3485647,18.7662566 L18.7623511,17.3524702 L17.8406561,16.1027143 C18.4342902,15.2591291 18.8482718,14.2827573 19.0318297,13.2282757 L19.0318297,13.2282757 L20.5666862,12.997852 L20.5666862,10.9982425 L19.0318297,10.7678188 C18.8482718,9.71333724 18.4342902,8.73696544 17.8406561,7.8933802 L17.8406561,7.8933802 L18.7623511,6.64362429 L17.3485647,5.22983792 L16.0988088,6.1515329 C15.2552236,5.55789885 14.2788518,5.1439172 13.2243702,4.9603593 L13.2243702,4.9603593 L12.9939465,3.42550283 Z M11.9980473,8.24877954 C14.0679555,8.24877954 15.747315,9.92813904 15.747315,11.9980473 C15.747315,14.0679555 14.0679555,15.747315 11.9980473,15.747315 C9.92813904,15.747315 8.24877954,14.0679555 8.24877954,11.9980473 C8.24877954,9.92813904 9.92813904,8.24877954 11.9980473,8.24877954 Z M11.9980473,9.49853544 C10.6194103,9.49853544 9.49853544,10.6194103 9.49853544,11.9980473 C9.49853544,13.3766842 10.6194103,14.4975591 11.9980473,14.4975591 C13.3766842,14.4975591 14.4975591,13.3766842 14.4975591,11.9980473 C14.4975591,10.6194103 13.3766842,9.49853544 11.9980473,9.49853544 Z"/>
</symbol><symbol id="bookmark-outline" viewBox="0 0 16 16">
	<path d="M10.0033259,2 C11.113927,2 12,2.8992496 12,4.0085302 L12,4.0085302 L12,14 L8,12 L4,14 L4.00475784,4.0085302 C4.00528479,2.90195036 4.89965575,2 6.00238842,2 L6.00238842,2 Z M8.99135208,4 L7.01150506,4 C6.4544442,4 6.00267842,4.43788135 6.00244778,5.00292933 L6,11 L8,10 L10,11 L10,5.00292933 C10,4.44902676 9.5569635,4 8.99135208,4 Z"/>
</symbol><symbol id="bookmark-solid" viewBox="0 0 16 16">
	<path d="M5.14285714,2 C4.51428571,2 4.00571429,2.6 4.00571429,3.33333333 L4,14 L8,12 L12,14 L12,3.33333333 C12,2.6 11.4857143,2 10.8571429,2 L5.14285714,2 Z"/>
</symbol><symbol id="cases-my-bookmarks" viewBox="0 0 24 24">
	<path d="M20.25,1 L3.75,1 C2.23320313,1 1,2.23320313 1,3.75 L1,20.25 C1,21.7667969 2.23320313,23 3.75,23 L20.25,23 C21.7667969,23 23,21.7667969 23,20.25 L23,3.75 C23,2.23320313 21.7667969,1 20.25,1 Z M12,3 L12,10.875 L15.375,7.5 L18.75,10.875 L18.75,3 L20.0065677,3 C20.5552252,3 21,3.44494629 21,3.99339768 L21,20.0066023 C21,20.5552407 20.5550537,21 20.0066023,21 L3.99339768,21 C3.44475929,21 3,20.5550537 3,20.0066023 L3,3.99339768 C3,3.44475929 3.4463114,3 3.99754465,3 L12,3 Z M8,12 C7.44771525,12 7,12.4477153 7,13 L7,13 L7,15 L5,15 C4.44771525,15 4,15.4477153 4,16 C4,16.5522847 4.44771525,17 5,17 L5,17 L7,17 L7,19 C7,19.5522847 7.44771525,20 8,20 C8.55228475,20 9,19.5522847 9,19 L9,19 L9,17 L11,17 C11.5522847,17 12,16.5522847 12,16 C12,15.4477153 11.5522847,15 11,15 L11,15 L9,15 L9,13 C9,12.4477153 8.55228475,12 8,12 Z"/>
</symbol><symbol id="cases-recently-viewed" viewBox="0 0 24 24">
	<path d="M18.6642587,5.305 C16.2771986,2.1475 12.9577358,2 12.1210343,2 L11.7163551,2 C10.7429377,2 7.22386967,2.2625 5.08836684,5.7125 C4.83954385,6.115 5.17859936,6.48 5.33992416,6.695 C7.72971861,9.8525 11.0874619,10 11.9351006,10 L12.3425141,10 C13.3049942,10 16.7775789,9.7375 18.9103474,6.2875 C19.1591704,5.885 18.8283178,5.52 18.6642587,5.305 Z M11.921429,7.4375 C11.1503512,7.4375 10.5269265,6.8675 10.5269265,6.1625 C10.5269265,5.4575 11.1503512,4.8875 11.921429,4.8875 C12.6925069,4.8875 13.3159315,5.4575 13.3159315,6.1625 C13.3159315,6.8675 12.6925069,7.4375 11.921429,7.4375 Z M6.53208707,6.015 C7.26488445,4.9625 8.2273646,4.1975 9.40038728,3.74 C9.58085231,3.67 9.75858302,3.61 9.93084509,3.5575 C9.03398859,4.1325 8.44611009,5.085 8.44611009,6.1625 C8.44611009,6.905 8.72501059,7.5875 9.19257907,8.13 C8.3011912,7.735 7.35238265,7.0825 6.53208707,6.015 Z M14.461611,8.3325 C15.0412866,7.765 15.3994823,7.0025 15.3994823,6.1625 C15.3994823,5.0575 14.7815263,4.0825 13.843655,3.5125 C14.9619913,3.815 16.3346193,4.4925 17.4802987,5.985 C16.5752393,7.29 15.4487,7.975 14.461611,8.3325 Z"/>
	<path d="M20,11 C21.1045695,11 22,11.8954305 22,13 L22,21 C22,22.1045695 21.1045695,23 20,23 L4,23 C2.8954305,23 2,22.1045695 2,21 L2,13 C2,11.8954305 2.8954305,11 4,11 L20,11 Z M19,13 L5,13 C4.44771525,13 4,13.4477153 4,14 L4,14 L4,20 C4,20.5522847 4.44771525,21 5,21 L5,21 L19,21 C19.5522847,21 20,20.5522847 20,20 L20,20 L20,14 C20,13.4477153 19.5522847,13 19,13 L19,13 Z"/>
	<path d="M12,14 C12.5522847,14 13,14.4477153 13,15 L13,16 L14,16 C14.5522847,16 15,16.4477153 15,17 C15,17.5522847 14.5522847,18 14,18 L13,18 L13,19 C13,19.5522847 12.5522847,20 12,20 C11.4477153,20 11,19.5522847 11,19 L11,18 L10,18 C9.44771525,18 9,17.5522847 9,17 C9,16.4477153 9.44771525,16 10,16 L11,16 L11,15 C11,14.4477153 11.4477153,14 12,14 Z"/>
</symbol><symbol id="cases" viewBox="0 0 24 24">
	<path d="M16.9835679,0.998328235 L5,0.998328235 C3.8954305,0.998328235 3,1.89375874 3,2.99832823 L3,8.00404425 C3,8.556329 3.44771525,9.00404425 4,9.00404425 C4.55228475,9.00404425 5,8.556329 5,8.00404425 L5,4 C5,3.44771525 5.44771525,3 6,3 L16.9835679,3 C17.5363143,3 17.9844038,2.55191051 17.9844038,1.99916412 C17.9844038,1.44641772 17.5363143,0.998328235 16.9835679,0.998328235 Z"/>
	<path d="M20,11 C21.1045695,11 22,11.8954305 22,13 L22,21 C22,22.1045695 21.1045695,23 20,23 L4,23 C2.8954305,23 2,22.1045695 2,21 L2,13 C2,11.8954305 2.8954305,11 4,11 L20,11 Z M19,13 L5,13 C4.44771525,13 4,13.4477153 4,14 L4,14 L4,20 C4,20.5522847 4.44771525,21 5,21 L5,21 L19,21 C19.5522847,21 20,20.5522847 20,20 L20,20 L20,14 C20,13.4477153 19.5522847,13 19,13 L19,13 Z"/>
	<path d="M12,14 C12.5522847,14 13,14.4477153 13,15 L13,16 L14,16 C14.5522847,16 15,16.4477153 15,17 C15,17.5522847 14.5522847,18 14,18 L13,18 L13,19 C13,19.5522847 12.5522847,20 12,20 C11.4477153,20 11,19.5522847 11,19 L11,18 L10,18 C9.44771525,18 9,17.5522847 9,17 C9,16.4477153 9.44771525,16 10,16 L11,16 L11,15 C11,14.4477153 11.4477153,14 12,14 Z"/>
	<path d="M19,4 C20.1045695,4 21,4.8954305 21,6 L21,6 L21,8 C21,9.1045695 20.1045695,10 19,10 L19,10 L8.00556204,10 C6.90099254,10 6.00556204,9.1045695 6.00556204,8 L6.00556204,8 L6.00556204,6 C6.00556204,4.8954305 6.90099254,4 8.00556204,4 L8.00556204,4 Z M18,6 L8.99636966,6 C8.44408491,6 7.99636966,6.44771525 7.99636966,7 C7.99636966,7.55228475 8.44408491,8 8.99636966,8 L18,8 C18.5522847,8 19,7.55228475 19,7 C19,6.44771525 18.5522847,6 18,6 Z"/>
</symbol><symbol id="circle-check-solid" viewBox="0 0 16 16">
	<path d="M15.128753,4.3659375 C13.4272843,6.322125 9.911003,10.3046875 8.759378,11.646875 C8.575003,11.859375 8.303128,11.996875 8.000003,11.996875 C7.725003,11.996875 7.475003,11.884375 7.293753,11.703125 C5.878128,10.2875 5.709378,10.11875 4.293753,8.703125 C4.112503,8.521875 4.000003,8.271875 4.000003,7.996875 C4.000003,7.44375 4.446878,6.996875 5.000003,6.996875 C5.275003,6.996875 5.525003,7.109375 5.706253,7.290625 C6.818753,8.403125 7.162503,8.746875 7.943753,9.528125 C9.41203425,7.81559375 12.6587843,4.16396875 13.9591905,2.6631875 C12.4944405,1.02871875 10.367503,0 8.000003,0 C3.58172175,0 3.00000011e-06,3.58171875 3.00000011e-06,8 C3.00000011e-06,12.4182812 3.58172175,16 8.000003,16 C12.4182843,16 16.000003,12.4182812 16.000003,8 C16.000003,6.69146875 15.685753,5.45640625 15.128753,4.3659375"/>
</symbol><symbol id="circle-minus" viewBox="0 0 16 16">
	<path d="M8,0 C12.416,0 16,3.584 16,8 C16,12.416 12.416,16 8,16 C3.584,16 0,12.416 0,8 C0,3.584 3.584,0 8,0 Z M12,7.2 L4,7.2 L4,8.8 L12,8.8 L12,7.2 Z"/>
</symbol><symbol id="circle-open" viewBox="0 0 16 16">
	<circle stroke="currentColor" stroke-width="2" cx="8" cy="8" r="7" fill="none"/>
</symbol><symbol id="circle-semi" viewBox="0 0 16 16">
	<path d="M0 8c0 4.41 3.587 8 8 8 4.412 0 8-3.587 8-8 0-4.41-3.59-8-8-8S0 3.59 0 8zm8 6c-3.309 0-6-2.691-6-6h12c0 3.309-2.691 6-6 6z"/>
</symbol><symbol id="circle-x-solid" viewBox="0 0 16 16">
	<path d="M8,0 C12.416,0 16,3.584 16,8 C16,12.416 12.416,16 8,16 C3.584,16 0,12.416 0,8 C0,3.584 3.584,0 8,0 Z M10.8284271,3.75735931 L8,6.586 L5.17157288,3.75735931 L3.75735931,5.17157288 L6.586,8 L3.75735931,10.8284271 L5.17157288,12.2426407 L8,9.414 L10.8284271,12.2426407 L12.2426407,10.8284271 L9.414,8 L12.2426407,5.17157288 L10.8284271,3.75735931 Z"/>
</symbol><symbol id="claims" viewBox="0 0 24 24">
	<path d="M3.001 17.009h1.998v5.986H3.001V17.01z"/>
	<path d="M1.005 19H6.99V21H1.005v-1.998zM5 5v11H3V4.027a1 1 0 01.882-.993l.116-.007 7.988-.014L10 5H5zm7-5l3 3H9l3-3zm.014 3.014L19.998 3H20a1 1 0 01.993.883L21 4v15.998a1 1 0 01-.883.994l-.117.006H8V19h11V5h-5l-1.986-1.986z"/>
	<path d="M12 6c2.758 0 5 2.242 5 5 0 1.46-.628 2.775-1.628 3.69 1.845.853 2.574 2.205 2.625 2.304L18 17l-1 1s-2-2-5-2c-2.906 0-4.874 1.877-4.994 1.994L7 18l-1-1s.713-1.425 2.629-2.31A4.986 4.986 0 017 11c0-2.758 2.242-5 5-5zm0 2c-1.655 0-3 1.345-3 3 0 1.654 1.345 3 3 3s3-1.345 3-3-1.345-3-3-3z"/>
</symbol><symbol id="claims-aging" viewBox="0 0 24 24">
	<path d="M12,7 C13.603125,7 15.1101562,7.6234375 16.2421875,8.7578125 C17.3765625,9.88984375 18,11.396875 18,13 C18,14.603125 17.3765625,16.1078125 16.2421875,17.2421875 C15.1101562,18.3765625 13.603125,19 12,19 C10.396875,19 8.8921875,18.3765625 7.7578125,17.2421875 C6.6234375,16.1101562 6,14.603125 6,13 C6,11.396875 6.6234375,9.88984375 7.7578125,8.7578125 C8.88984375,7.6234375 10.396875,7 12,7 Z M12,8 C9.2421875,8 7,10.2421875 7,13 C7,15.7578125 9.2421875,18 12,18 C14.7578125,18 17,15.7578125 17,13 C17,10.2421875 14.7578125,8 12,8 Z M12.0717452,9 C12.6884374,9 13,9.32909276 13,9.95395385 L13,12.9077848 C13,13.5326459 12.9460392,13.6236444 12.5282847,13.9804857 C12.3508321,14.1320638 10.9972804,15.2710691 10.390422,15.7625118 C10.2099209,15.9154716 9.78678449,16.2809745 9.22507977,15.6094422 C8.84662786,15.1569932 8.96623813,14.6983644 9.42819659,14.2780648 C10.4453311,13.4708132 11.0140654,13.0140532 11.1343995,12.9077848 C11.1343995,12.2558368 11.1343995,11.2712264 11.1343995,9.95395385 C11.1343995,9.32909276 11.455053,9 12.0717452,9 Z"/>
    <path d="M8.40082134,3.00349521 L4.98833353,3.02340139 C3.88833607,3.02981804 3,3.92335118 3,5.02336736 L3,21 C3,22.1045695 3.8954305,23 5,23 L19,23 C20.1045695,23 21,22.1045695 21,21 L21,5 C21,3.8954305 20.1045695,3 19,3 L15.6055513,3 C15.2107013,3 14.8246859,2.88312395 14.4961509,2.66410059 L13.1094004,1.73960026 C12.4376016,1.29173438 11.5623984,1.29173438 10.8905996,1.73960026 L9.49855526,2.66762982 C9.17332617,2.88444922 8.79169141,3.00121513 8.40082134,3.00349521 Z M12.7071068,3.70710678 L13.7071068,4.70710678 C13.8946432,4.89464316 14.1489971,5 14.4142136,5 L18,5 C18.5522847,5 19,5.44771525 19,6 L19,20 C19,20.5522847 18.5522847,21 18,21 L6,21 C5.44771525,21 5,20.5522847 5,20 L5,6 C5,5.44771525 5.44771525,5 6,5 L9.58578644,5 C9.85100293,5 10.1053568,4.89464316 10.2928932,4.70710678 L11.2928932,3.70710678 C11.6834175,3.31658249 12.3165825,3.31658249 12.7071068,3.70710678 Z"/>
</symbol><symbol id="claims-closed" viewBox="0 0 24 24">
	<path d="M3.001 17.009h1.998v5.986H3.001V17.01z"/>
	<path d="M1.005 19H6.99V21H1.005v-1.998zM5 5v11H3V4.027a1 1 0 01.882-.993l.116-.007 7.988-.014L10 5H5zm7-5l3 3H9l3-3zm.014 3.014L19.998 3H20a1 1 0 01.993.883L21 4v15.998a1 1 0 01-.883.994l-.117.006H8V19h11V5h-5l-1.986-1.986z"/>
	<path d="M12 6c2.76 0 5 2.24 5 5s-2.24 5-5 5-5-2.24-5-5 2.24-5 5-5zm2.5 4.375h-5v1.25h5v-1.25z"/>
</symbol><symbol id="claims-in-process" viewBox="0 0 24 24">
	<path d="M3.001 17.009h1.998v5.986H3.001V17.01z"/>
	<path d="M1.005 19H6.99v2H1.005v-1.998zM5 5v11H3V4.027a1 1 0 01.882-.993l.116-.007 7.988-.014L10 5H5zm7-5l3 3H9l3-3zm.014 3.014L19.998 3H20a1 1 0 01.993.883L21 4v15.998a1 1 0 01-.883.994l-.117.006H8V19h11V5h-5l-1.986-1.986z"/>
	<path transform="rotate(-90, 12, 12)" d="M12 7c-2.756 0-5 2.242-5 5s2.242 5 5 5c2.756 0 5-2.244 5-5s-2.244-5-5-5zm-3.75 5A3.754 3.754 0 0112 8.25v7.5A3.754 3.754 0 018.25 12z"/>
</symbol><symbol id="claims-processed" viewBox="0 0 24 24">
	<path d="M3.001 17.009h1.998v5.986H3.001V17.01z"/>
	<path d="M1.005 19H6.99v2H1.005v-1.998zM5 5v11H3V4.027a1 1 0 01.882-.993l.116-.007 7.988-.014L10 5H5zm7-5l3 3H9l3-3zm.014 3.014L19.998 3H20a1 1 0 01.993.883L21 4v15.998a1 1 0 01-.883.994l-.117.006H8V19h11V5h-5l-1.986-1.986z"/>
	<path d="M16.455 9.729c-1.063 1.222-3.26 3.711-3.98 4.55a.623.623 0 01-.916.035L9.684 12.44a.624.624 0 11.882-.882l1.399 1.398c.918-1.07 2.947-3.353 3.76-4.29a5 5 0 10.731 1.064"/>
</symbol><symbol id="claims-savings" viewBox="0 0 24 24">
	<path d="M8.40082134,3.00349521 L4.98833353,3.02340139 C3.88833607,3.02981804 3,3.92335118 3,5.02336736 L3,21 C3,22.1045695 3.8954305,23 5,23 L19,23 C20.1045695,23 21,22.1045695 21,21 L21,5 C21,3.8954305 20.1045695,3 19,3 L15.6055513,3 C15.2107013,3 14.8246859,2.88312395 14.4961509,2.66410059 L13.1094004,1.73960026 C12.4376016,1.29173438 11.5623984,1.29173438 10.8905996,1.73960026 L9.49855526,2.66762982 C9.17332617,2.88444922 8.79169141,3.00121513 8.40082134,3.00349521 Z M12.7071068,3.70710678 L13.7071068,4.70710678 C13.8946432,4.89464316 14.1489971,5 14.4142136,5 L18,5 C18.5522847,5 19,5.44771525 19,6 L19,20 C19,20.5522847 18.5522847,21 18,21 L6,21 C5.44771525,21 5,20.5522847 5,20 L5,6 C5,5.44771525 5.44771525,5 6,5 L9.58578644,5 C9.85100293,5 10.1053568,4.89464316 10.2928932,4.70710678 L11.2928932,3.70710678 C11.6834175,3.31658249 12.3165825,3.31658249 12.7071068,3.70710678 Z"/>
	<path d="M12.9809069,18 L12.9809069,16.8872093 C14.2553699,16.5802326 15,15.6976744 15,14.4953488 C15,12.9860465 14.2410501,12.4360465 12.5083532,11.6046512 C11.4200477,11.0802326 11.0763723,10.8116279 11.0763723,10.2744186 C11.0763723,9.82674419 11.4486874,9.49418605 12.0214797,9.49418605 C12.7088305,9.49418605 13.0238663,9.69883721 13.6109785,10.2872093 L14.7995227,9.28953488 C14.2840095,8.68837209 13.725537,8.27906977 12.9809069,8.1127907 L12.9809069,7 L11.176611,7 L11.176611,8.1127907 C9.98806683,8.39418605 9.25775656,9.26395349 9.25775656,10.3511628 C9.25775656,11.8348837 10.1599045,12.4488372 11.6491647,13.1395349 C12.823389,13.6767442 13.1813842,14.022093 13.1813842,14.5337209 C13.1813842,15.1348837 12.8090692,15.505814 12.0644391,15.505814 C11.4630072,15.505814 10.8186158,15.1732558 10.2171838,14.4825581 L9,15.5825581 C9.54415274,16.1837209 10.2458234,16.7081395 11.176611,16.9127907 L11.176611,18 L12.9809069,18 Z"/>
</symbol><symbol id="email" viewBox="0 0 24 24">
	<path d="M18,6 L6,6 C4.896875,6 4,6.896875 4,8 L4,16 C4,17.103125 4.896875,18 6,18 L18,18 C19.103125,18 20,17.103125 20,16 L20,8 C20,6.896875 19.103125,6 18,6 Z M17,8 L12.6,11.3 C12.246875,11.565625 11.753125,11.565625 11.4,11.3 L7,8 L17,8 Z M6,16 L6,9.75 L10.2,12.9 C11.234375,13.6875 12.609375,13.71875 13.8,12.9 L18,9.75 L18,16 L6,16 Z"/>
</symbol><symbol id="exclamation-full" viewBox="0 0 512 512">
	<path class="lexicon-icon-outline" d="M256,0C114.6,0,0,114.6,0,256s114.6,256,256,256s256-114.6,256-256S397.4,0,256,0z M256,384c-17.7,0-32-14.3-32-32s14.3-32,32-32s32,14.3,32,32S273.7,384,256,384z M272,288h-32l-16-160h64L272,288z"/>
</symbol><symbol id="fax" viewBox="0 0 24 24">
	<path d="M14.984 4c.57 0 1.032.46 1.032 1.027v1.961H18c1.103 0 2 .863 2 1.961v6.018a1.998 1.998 0 01-2 1.992h-.984v2.001c0 .567-.432 1.028-1 1.028H8.05a1.03 1.03 0 01-1.031-1.028v-2H6c-1.103 0-2-.894-2-1.992V8.949c0-1.098.897-1.96 2-1.96h2.013V5.026A1.03 1.03 0 019.043 4zm0 10.967H9.02v2.966h5.969l-.004-2.966zM18 8.98H6v5.986h1.019v-.969a1.03 1.03 0 011.031-1.026h7.938c.568 0 1.03.46 1.03 1.027v.969H18V8.98zM7.5 9.986a.499.499 0 11.002.998.499.499 0 01-.002-.998zm2.01 0a.49.49 0 11.001.98.49.49 0 01-.002-.98zm4.506-3.994h-4.003v1.009h4.003V5.992z"/>
</symbol><symbol id="filter" viewBox="0 0 16 16">
	<path d="M14,5.06325011 L14,3 L2,3 L2,5.06325011 L8,10.0632501 L8,14.382 C8,13.6381801 7.21786093,13.1550014 6.55257281,13.4871456 L8.55256078,12.4871532 C8.21389757,12.6569844 8,13.0035792 8,13.382 L8,10.0632501 L14,5.06325011 Z M16,6 L10,11 L10,13.382 C10,13.761 9.786,14.107 9.447,14.276 L7.447,15.276 C6.782,15.608 6,15.125 6,14.382 L6,11 L0,6 L0,2 C0,1.448 0.448,1 1,1 L15,1 C15.553,1 16,1.448 16,2 L16,6 Z"/>
</symbol><symbol id="home" viewBox="0 0 24 24">
	<path d="M13.1469247,1.80284728 L21.1469247,7.40284728 C21.681578,7.77710463 22,8.38868353 22,9.04131112 L22,21 C22,22.1045695 21.1045695,23 20,23 L16,23 C14.8954305,23 14,22.1045695 14,21 L14,17.8290186 C14,17.2982358 13.789009,16.789222 13.4134995,16.4140913 L13,16.0010091 C12.447552,15.4491186 11.552448,15.4491186 11,16.0010091 L10.5842663,16.4163232 C10.2100788,16.7901332 9.99919929,17.2969453 9.99777309,17.8258576 L9.98919952,21.005393 C9.98622675,22.1078529 9.09167079,23 7.98920679,23 L4,23 C2.8954305,23 2,22.1045695 2,21 L2,9.04131112 C2,8.38868353 2.31842196,7.77710463 2.85307531,7.40284728 L10.8530753,1.80284728 C11.5417156,1.32079907 12.4582844,1.32079907 13.1469247,1.80284728 Z M12.5968964,3.49235375 C12.2426113,3.22877821 11.7573887,3.22877821 11.4031036,3.49235375 L11.4031036,3.49235375 L4.40192299,8.70098357 C4.14895749,8.88918092 3.99956346,9.18565832 3.99882212,9.50095063 L3.99882212,9.50095063 L3.97419216,19.9760269 C3.97291445,20.5194337 4.40582118,20.9644056 4.94905787,20.9780623 L4.94905787,20.9780623 L6.94959347,21.0283547 L6.94959347,21.0283547 L6.97472499,21.0286706 C7.52700974,21.0286706 7.97472499,20.5809553 7.97472499,20.0286706 L7.97472499,20.0286706 L7.97472499,16.4326413 C7.97472499,16.1139284 8.12664681,15.8143038 8.38374914,15.6259521 L8.38374914,15.6259521 L11.4011058,13.4154541 C11.7567235,13.1549307 12.2409907,13.1580096 12.593267,13.4230338 L12.593267,13.4230338 L15.693438,15.7553515 C15.9445467,15.9442654 16.0922526,16.2402255 16.0922526,16.5544611 L16.0922526,16.5544611 L16.0922526,19.9534969 C16.0922526,20.5057817 16.5399679,20.9534969 17.0922526,20.9534969 L17.0922526,20.9534969 L18.9802546,20.9534969 C19.5318355,20.9534969 19.9792587,20.5068795 19.9802529,19.9552994 L19.9802529,19.9552994 L19.9990923,9.50355201 C19.9996633,9.18679696 19.8501291,8.8885014 19.5959903,8.69943115 L19.5959903,8.69943115 Z"/>
</symbol><symbol id="legend" viewBox="0 0 32 32">
    <path transform="translate(16, 16)" d="M16,0A16,16,0,1,1,-16,0A16,16,0,1,1,16,0"></path>
</symbol><symbol id="logo-color" viewBox="0 0 476 286">
	<path d="M467.535 250.441h7.6v34.054h-7.6v-13.398h-13.544v13.398h-7.599v-34.054h7.599v14.225h13.544v-14.225zm-36.342 6.577v27.477h-7.6v-27.477h-9.647v-6.577h26.892v6.577h-9.645zm-42.092 27.477v-34.054h7.599v27.281h14.518v6.773h-22.117zm-22.312-23.92l-4.287 9.889h8.526l-4.239-9.889zm10.279 23.92l-3.166-7.357h-14.275l-3.166 7.357h-8.087l14.712-34.054h7.357l14.711 34.054h-8.086zm-31.569-34.054v6.771h-16.953v7.016h15.248v6.479h-15.248v7.064h17.489v6.724h-25.089v-34.054h24.553zm-40.532 0h7.6v34.054h-7.6v-13.398h-13.543v13.398h-7.601v-34.054h7.601v14.225h13.543v-14.225z" fill="#003D78"/>
    <path d="M106.544 250.441v6.771H89.59v7.016h15.248v6.479H89.59v7.064h17.489v6.724H81.99v-34.054h24.554zm-40.533 0h7.6v34.054h-7.6l-16.223-21.339v21.339h-7.599v-34.054h7.112l16.71 21.923v-21.923zm-35.417 29.352c-3.443 3.362-7.681 5.042-12.715 5.042s-9.272-1.68-12.715-5.042C1.721 276.432 0 272.249 0 267.248s1.721-9.183 5.164-12.544c3.443-3.362 7.681-5.042 12.715-5.042s9.272 1.68 12.715 5.042c3.442 3.361 5.163 7.543 5.163 12.544s-1.721 9.184-5.163 12.545zm224.39-16.734l-9.208 18.609h-4.531l-9.158-18.609v21.436h-7.601v-34.054h10.28l8.769 18.707 8.818-18.707h10.23v34.054h-7.599v-21.436zm-52.81-2.484l-4.287 9.889h8.526l-4.239-9.889zm10.28 23.92l-3.167-7.357h-14.274l-3.166 7.357h-8.087l14.712-34.054h7.356l14.713 34.054h-8.087zm-31.569-34.054v6.771h-16.953v7.016h15.248v6.479h-15.248v7.064h17.489v6.724h-25.089v-34.054h24.553zm-39.753 6.577v27.477h-7.6v-27.477h-9.646v-6.577h26.892v6.577h-9.646zm-113.12 10.255c0-3.037-.975-5.627-2.923-7.771-1.949-2.143-4.344-3.214-7.186-3.214-2.842 0-5.237 1.071-7.186 3.214-1.948 2.144-2.922 4.734-2.922 7.771s.974 5.618 2.922 7.746c1.949 2.127 4.344 3.19 7.186 3.19 2.842 0 5.237-1.063 7.186-3.19 1.948-2.128 2.923-4.709 2.923-7.746z" fill="#64A336"/>
    <path d="M208.801 176.437l-.063 6.743-46.803-23.872c0-20.656.218-40.456.528-60.662l46.659 24.151-.321 53.64zm21.52-36.701l.015.008.062-6.713.037-3.229.165-17.618-.114-.062.006-.898L206.1 98.627l-65.465-36.224c0 28.743.306 57.596-.131 86.262l-.057 3.228.188 17.873v1.242l23.748 12.086 65.46 36.734.478-80.092zM300.281 191.178l-.138-47.856-21.49 12.313.363 47.726 21.265-12.183zM200.743 43.33l77.383 43.106.228 29.816 21.674-12.307-.085-29.241-75.004-42.603 34.05-19.883L237.239 0l-90.605 51.002 20.75 11.893 33.359-19.565z" fill="#64A336"/>
    <path fill="#003D78" d="M266.04 211.51v-56.869l46.22-26.483.554 55.841 21.63-12.39V54.603l-63.312-35.565-21.892 12.163 62.403 34.802.39 39.327-45.993 26.115v-36.94l-63.311-35.564-21.893 12.163 62.404 34.801 1.17 117.997 21.63-12.392"/>
</symbol><symbol id="logo-symbol-color" viewBox="0 0 194 224">
	<path d="M68.354 176.437l-.063 6.743-46.803-23.872c0-20.656.218-40.456.528-60.662l46.659 24.151-.321 53.64zm21.52-36.701l.015.008.062-6.713.037-3.229.165-17.618-.114-.062.006-.898-24.392-12.597L.188 62.403c0 28.743.306 57.596-.131 86.262L0 151.893l.188 17.873v1.242l23.748 12.086 65.46 36.734.478-80.092zM159.834 191.178l-.138-47.856-21.49 12.313.363 47.726 21.265-12.183zM60.296 43.33l77.383 43.106.228 29.816 21.674-12.307-.085-29.241-75.004-42.603 34.05-19.883L96.792 0 6.187 51.002l20.75 11.893L60.296 43.33z" fill="#64A336"/>
	<path fill="#003D78" d="M125.593 211.51v-56.869l46.22-26.483.554 55.841 21.63-12.39V54.603l-63.312-35.565-21.892 12.163 62.403 34.802.39 39.327-45.993 26.115v-36.94L62.282 58.941 40.389 71.104l62.404 34.801 1.17 117.997 21.63-12.392"/>
</symbol><symbol id="logo-symbol" viewBox="0 0 194 224">
	<path d="M68.354 176.437l-.063 6.743-46.803-23.872c0-20.656.218-40.456.528-60.662l46.659 24.151-.321 53.64zm21.52-36.701l.015.008.062-6.713.037-3.229.165-17.618-.114-.062.006-.898-24.392-12.597L.188 62.403c0 28.743.306 57.596-.131 86.262L0 151.893l.188 17.873v1.242l23.748 12.086 65.46 36.734.478-80.092zM159.834 191.178l-.138-47.856-21.49 12.313.363 47.726 21.265-12.183zM60.296 43.33l77.383 43.106.228 29.816 21.674-12.307-.085-29.241-75.004-42.603 34.05-19.883L96.792 0 6.187 51.002l20.75 11.893L60.296 43.33z"/>
	<path d="M125.593 211.51v-56.869l46.22-26.483.554 55.841 21.63-12.39V54.603l-63.312-35.565-21.892 12.163 62.403 34.802.39 39.327-45.993 26.115v-36.94L62.282 58.941 40.389 71.104l62.404 34.801 1.17 117.997 21.63-12.392"/>
</symbol><symbol id="logo-wordmark-color" viewBox="0 0 476 36">
	<path d="M467.535,0.779 L475.135,0.779 L475.135,34.833 L467.535,34.833 L467.535,21.435 L453.991,21.435 L453.991,34.833 L446.392,34.833 L446.392,0.779 L453.991,0.779 L453.991,15.004 L467.535,15.004 L467.535,0.779 Z M431.193,7.356 L431.193,34.833 L423.593,34.833 L423.593,7.356 L413.946,7.356 L413.946,0.779 L440.838,0.779 L440.838,7.356 L431.193,7.356 Z M389.101,34.833 L389.101,0.779 L396.7,0.779 L396.7,28.06 L411.218,28.06 L411.218,34.833 L389.101,34.833 Z M366.789,10.913 L362.502,20.802 L371.028,20.802 L366.789,10.913 Z M377.068,34.833 L373.902,27.476 L359.627,27.476 L356.461,34.833 L348.374,34.833 L363.086,0.779 L370.443,0.779 L385.154,34.833 L377.068,34.833 Z M345.499,0.779 L345.499,7.55 L328.546,7.55 L328.546,14.566 L343.794,14.566 L343.794,21.045 L328.546,21.045 L328.546,28.109 L346.035,28.109 L346.035,34.833 L320.946,34.833 L320.946,0.779 L345.499,0.779 Z M304.967,0.779 L312.567,0.779 L312.567,34.833 L304.967,34.833 L304.967,21.435 L291.424,21.435 L291.424,34.833 L283.823,34.833 L283.823,0.779 L291.424,0.779 L291.424,15.004 L304.967,15.004 L304.967,0.779 L304.967,0.779 Z" fill="#003D78"/>
	<path d="M106.544,0.779 L106.544,7.55 L89.59,7.55 L89.59,14.566 L104.838,14.566 L104.838,21.045 L89.59,21.045 L89.59,28.109 L107.079,28.109 L107.079,34.833 L81.99,34.833 L81.99,0.779 L106.544,0.779 Z M66.011,0.779 L73.611,0.779 L73.611,34.833 L66.011,34.833 L49.788,13.494 L49.788,34.833 L42.189,34.833 L42.189,0.779 L49.301,0.779 L66.011,22.702 L66.011,0.779 Z M30.594,30.131 C27.151,33.493 22.913,35.173 17.879,35.173 C12.845,35.173 8.607,33.493 5.164,30.131 C1.721,26.77 0,22.587 0,17.586 C0,12.585 1.721,8.403 5.164,5.042 C8.607,1.68 12.845,0 17.879,0 C22.913,0 27.151,1.68 30.594,5.042 C34.036,8.403 35.757,12.585 35.757,17.586 C35.757,22.587 34.036,26.77 30.594,30.131 Z M254.984,13.397 L245.776,32.006 L241.245,32.006 L232.087,13.397 L232.087,34.833 L224.486,34.833 L224.486,0.779 L234.766,0.779 L243.535,19.486 L252.353,0.779 L262.583,0.779 L262.583,34.833 L254.984,34.833 L254.984,13.397 Z M202.174,10.913 L197.887,20.802 L206.413,20.802 L202.174,10.913 Z M212.454,34.833 L209.287,27.476 L195.013,27.476 L191.847,34.833 L183.76,34.833 L198.472,0.779 L205.828,0.779 L220.541,34.833 L212.454,34.833 Z M180.885,0.779 L180.885,7.55 L163.932,7.55 L163.932,14.566 L179.18,14.566 L179.18,21.045 L163.932,21.045 L163.932,28.109 L181.421,28.109 L181.421,34.833 L156.332,34.833 L156.332,0.779 L180.885,0.779 Z M141.132,7.356 L141.132,34.833 L133.532,34.833 L133.532,7.356 L123.886,7.356 L123.886,0.779 L150.778,0.779 L150.778,7.356 L141.132,7.356 Z M28.012,17.611 C28.012,14.574 27.037,11.984 25.089,9.84 C23.14,7.697 20.745,6.626 17.903,6.626 C15.061,6.626 12.666,7.697 10.717,9.84 C8.769,11.984 7.795,14.574 7.795,17.611 C7.795,20.648 8.769,23.229 10.717,25.357 C12.666,27.484 15.061,28.547 17.903,28.547 C20.745,28.547 23.14,27.484 25.089,25.357 C27.037,23.229 28.012,20.648 28.012,17.611 L28.012,17.611 Z" fill="#64A336"/>
</symbol><symbol id="logo-wordmark" viewBox="0 0 476 36">
	<path d="M467.535,0.779 L475.135,0.779 L475.135,34.833 L467.535,34.833 L467.535,21.435 L453.991,21.435 L453.991,34.833 L446.392,34.833 L446.392,0.779 L453.991,0.779 L453.991,15.004 L467.535,15.004 L467.535,0.779 Z M431.193,7.356 L431.193,34.833 L423.593,34.833 L423.593,7.356 L413.946,7.356 L413.946,0.779 L440.838,0.779 L440.838,7.356 L431.193,7.356 Z M389.101,34.833 L389.101,0.779 L396.7,0.779 L396.7,28.06 L411.218,28.06 L411.218,34.833 L389.101,34.833 Z M366.789,10.913 L362.502,20.802 L371.028,20.802 L366.789,10.913 Z M377.068,34.833 L373.902,27.476 L359.627,27.476 L356.461,34.833 L348.374,34.833 L363.086,0.779 L370.443,0.779 L385.154,34.833 L377.068,34.833 Z M345.499,0.779 L345.499,7.55 L328.546,7.55 L328.546,14.566 L343.794,14.566 L343.794,21.045 L328.546,21.045 L328.546,28.109 L346.035,28.109 L346.035,34.833 L320.946,34.833 L320.946,0.779 L345.499,0.779 Z M304.967,0.779 L312.567,0.779 L312.567,34.833 L304.967,34.833 L304.967,21.435 L291.424,21.435 L291.424,34.833 L283.823,34.833 L283.823,0.779 L291.424,0.779 L291.424,15.004 L304.967,15.004 L304.967,0.779 L304.967,0.779 Z"/>
	<path d="M106.544,0.779 L106.544,7.55 L89.59,7.55 L89.59,14.566 L104.838,14.566 L104.838,21.045 L89.59,21.045 L89.59,28.109 L107.079,28.109 L107.079,34.833 L81.99,34.833 L81.99,0.779 L106.544,0.779 Z M66.011,0.779 L73.611,0.779 L73.611,34.833 L66.011,34.833 L49.788,13.494 L49.788,34.833 L42.189,34.833 L42.189,0.779 L49.301,0.779 L66.011,22.702 L66.011,0.779 Z M30.594,30.131 C27.151,33.493 22.913,35.173 17.879,35.173 C12.845,35.173 8.607,33.493 5.164,30.131 C1.721,26.77 0,22.587 0,17.586 C0,12.585 1.721,8.403 5.164,5.042 C8.607,1.68 12.845,0 17.879,0 C22.913,0 27.151,1.68 30.594,5.042 C34.036,8.403 35.757,12.585 35.757,17.586 C35.757,22.587 34.036,26.77 30.594,30.131 Z M254.984,13.397 L245.776,32.006 L241.245,32.006 L232.087,13.397 L232.087,34.833 L224.486,34.833 L224.486,0.779 L234.766,0.779 L243.535,19.486 L252.353,0.779 L262.583,0.779 L262.583,34.833 L254.984,34.833 L254.984,13.397 Z M202.174,10.913 L197.887,20.802 L206.413,20.802 L202.174,10.913 Z M212.454,34.833 L209.287,27.476 L195.013,27.476 L191.847,34.833 L183.76,34.833 L198.472,0.779 L205.828,0.779 L220.541,34.833 L212.454,34.833 Z M180.885,0.779 L180.885,7.55 L163.932,7.55 L163.932,14.566 L179.18,14.566 L179.18,21.045 L163.932,21.045 L163.932,28.109 L181.421,28.109 L181.421,34.833 L156.332,34.833 L156.332,0.779 L180.885,0.779 Z M141.132,7.356 L141.132,34.833 L133.532,34.833 L133.532,7.356 L123.886,7.356 L123.886,0.779 L150.778,0.779 L150.778,7.356 L141.132,7.356 Z M28.012,17.611 C28.012,14.574 27.037,11.984 25.089,9.84 C23.14,7.697 20.745,6.626 17.903,6.626 C15.061,6.626 12.666,7.697 10.717,9.84 C8.769,11.984 7.795,14.574 7.795,17.611 C7.795,20.648 8.769,23.229 10.717,25.357 C12.666,27.484 15.061,28.547 17.903,28.547 C20.745,28.547 23.14,27.484 25.089,25.357 C27.037,23.229 28.012,20.648 28.012,17.611 L28.012,17.611 Z"/>
</symbol><symbol id="logo" viewBox="0 0 476 286">
	<path d="M467.535 250.441h7.6v34.054h-7.6v-13.398h-13.544v13.398h-7.599v-34.054h7.599v14.225h13.544v-14.225zm-36.342 6.577v27.477h-7.6v-27.477h-9.647v-6.577h26.892v6.577h-9.645zm-42.092 27.477v-34.054h7.599v27.281h14.518v6.773h-22.117zm-22.312-23.92l-4.287 9.889h8.526l-4.239-9.889zm10.279 23.92l-3.166-7.357h-14.275l-3.166 7.357h-8.087l14.712-34.054h7.357l14.711 34.054h-8.086zm-31.569-34.054v6.771h-16.953v7.016h15.248v6.479h-15.248v7.064h17.489v6.724h-25.089v-34.054h24.553zm-40.532 0h7.6v34.054h-7.6v-13.398h-13.543v13.398h-7.601v-34.054h7.601v14.225h13.543v-14.225zM106.544 250.441v6.771H89.59v7.016h15.248v6.479H89.59v7.064h17.489v6.724H81.99v-34.054h24.554zm-40.533 0h7.6v34.054h-7.6l-16.223-21.339v21.339h-7.599v-34.054h7.112l16.71 21.923v-21.923zm-35.417 29.352c-3.443 3.362-7.681 5.042-12.715 5.042s-9.272-1.68-12.715-5.042C1.721 276.432 0 272.249 0 267.248s1.721-9.183 5.164-12.544c3.443-3.362 7.681-5.042 12.715-5.042s9.272 1.68 12.715 5.042c3.442 3.361 5.163 7.543 5.163 12.544s-1.721 9.184-5.163 12.545zm224.39-16.734l-9.208 18.609h-4.531l-9.158-18.609v21.436h-7.601v-34.054h10.28l8.769 18.707 8.818-18.707h10.23v34.054h-7.599v-21.436zm-52.81-2.484l-4.287 9.889h8.526l-4.239-9.889zm10.28 23.92l-3.167-7.357h-14.274l-3.166 7.357h-8.087l14.712-34.054h7.356l14.713 34.054h-8.087zm-31.569-34.054v6.771h-16.953v7.016h15.248v6.479h-15.248v7.064h17.489v6.724h-25.089v-34.054h24.553zm-39.753 6.577v27.477h-7.6v-27.477h-9.646v-6.577h26.892v6.577h-9.646zm-113.12 10.255c0-3.037-.975-5.627-2.923-7.771-1.949-2.143-4.344-3.214-7.186-3.214-2.842 0-5.237 1.071-7.186 3.214-1.948 2.144-2.922 4.734-2.922 7.771s.974 5.618 2.922 7.746c1.949 2.127 4.344 3.19 7.186 3.19 2.842 0 5.237-1.063 7.186-3.19 1.948-2.128 2.923-4.709 2.923-7.746z"/>
	<path d="M208.801 176.437l-.063 6.743-46.803-23.872c0-20.656.218-40.456.528-60.662l46.659 24.151-.321 53.64zm21.52-36.701l.015.008.062-6.713.037-3.229.165-17.618-.114-.062.006-.898L206.1 98.627l-65.465-36.224c0 28.743.306 57.596-.131 86.262l-.057 3.228.188 17.873v1.242l23.748 12.086 65.46 36.734.478-80.092zM300.281 191.178l-.138-47.856-21.49 12.313.363 47.726 21.265-12.183zM200.743 43.33l77.383 43.106.228 29.816 21.674-12.307-.085-29.241-75.004-42.603 34.05-19.883L237.239 0l-90.605 51.002 20.75 11.893 33.359-19.565z"/>
	<path d="M266.04 211.51v-56.869l46.22-26.483.554 55.841 21.63-12.39V54.603l-63.312-35.565-21.892 12.163 62.403 34.802.39 39.327-45.993 26.115v-36.94l-63.311-35.564-21.893 12.163 62.404 34.801 1.17 117.997 21.63-12.392"/>
</symbol><symbol id="note" viewBox="0 0 24 24">
	<path d="M18,4 C19.09375,4 19.98125,4.8875 19.98125,5.98125 L19.98125,5.98125 L19.98125,17.003125 L16.98125,20.003125 L5.98125,20.003125 C4.8875,20.003125 4,18.959375 4,17.865625 L4,17.865625 L4,5.98125 C4,4.8875 4.8875,4 5.98125,4 L5.98125,4 Z M17.98125,6 L6,6 L6,17.8625 C6,17.903125 6.03125,17.9625 6.0625,18 L6.0625,18 L13.98125,18 L13.98125,14 L17.98125,14 L17.98125,6 Z M17.98125,16 L15.98125,16 L15.98125,18 L17.98125,16 Z M11.990625,14 L11.990625,15 L6.990625,15 L6.990625,14 L11.990625,14 Z M13.990625,12 L13.990625,13 L6.990625,13 L6.990625,12 L13.990625,12 Z M16.990625,10 L16.990625,11 L6.990625,11 L6.990625,10 L16.990625,10 Z M14.990625,8 L14.990625,9 L6.990625,9 L6.990625,8 L14.990625,8 Z"/>
</symbol><symbol id="phone" viewBox="0 0 24 24">
	<path d="M19.4 15.4l-.1-.2c-.7-1.1-4-1.7-4.1-1.7h-.4c-.5.2-1 .5-1.6 1.1-.8-.5-1.6-1.2-2.1-1.7s-1.3-1.5-1.6-2.2c.6-.7 1.1-1.2 1.2-2 0 0-.5-3.4-1.6-4.1L9 4.5c-.3-.2-.9-.5-1.6-.5-.1 0-.3 0-.5.1-.2 0-.4.1-.6.3-.5.3-1.5 1.1-1.9 2-.4 1-.2 5.9 3.5 9.8 3.5 3.6 7.6 3.8 8.3 3.8.2 0 .5 0 .7-.1H17.2c1-.5 1.8-1.3 2.2-1.8.8-1.1.2-2.3 0-2.7zM17.9 17c-.3.4-.8 1-1.3 1.2h-.4c-.6 0-4-.2-7-3.3C6.1 11.6 6 7.7 6.1 7.1c.2-.4.6-.8 1.2-1.2 0 0 0-.1.1-.1s.5.2.6.3h.1c.3.4.6 2 .7 2.6-.1.2-.6.6-.8.9h-.1c-.3.4-.4 1-.2 1.5.4 1 1.4 2.4 2.1 3.1.7.7 1.9 1.6 2.9 2.2.5.2 1.1.1 1.5-.3.4-.2.8-.7 1-.8.5.1 2.1.6 2.5.9h.1c.2.4.2.6.1.8z"/>
</symbol></svg>