<svg xmlns="http://www.w3.org/2000/svg" viewBox="0 0 24 24">
	<path d="M19.5,2 C20.82375,2 21.9099,3.0332 21.994674,4.335824 L22,4.5 L22,19.5 C22,20.82375 20.9668,21.9099 19.664176,21.994674 L19.5,22 L4.5,22 C3.17625,22 2.0901,20.9668 2.005326,19.664176 L2,19.5 L2,4.5 C2,3.17625 3.0332,2.0901 4.335824,2.005326 L4.5,2 L19.5,2 Z M4,19 C4,19.5128358 4.38604019,19.9355072 4.88337887,19.9932723 L5,20 L19,20 C19.5128358,20 19.9355072,19.6139598 19.9932723,19.1166211 L20,19 L4,19 Z M19,4 L5,4 C4.48716416,4 4.06449284,4.38604019 4.00672773,4.88337887 L4,5 L4,16.649 L16.041365,11.3205813 C16.1521546,11.2715453 16.2691961,11.255509 16.3814779,11.2682177 L16.3868776,11.2538611 L18.8675517,12.0732408 C19.1930894,12.1807676 19.3698221,12.5318357 19.2622953,12.8573734 C19.2554031,12.8782394 19.2474078,12.8987248 19.2383432,12.9187429 C19.0766071,13.2759173 18.6707343,13.4526603 18.2990727,13.3277614 L16.304,12.657 L4.253,18 L20,18 L20,5 C20,4.44771525 19.5522847,4 19,4 Z M13.8535534,5.14644661 C14.0271197,5.32001296 14.0464049,5.58943736 13.9114088,5.7843055 L13.8535534,5.85355339 L7.85355339,11.8535534 C7.78846601,11.9186408 7.70989859,11.9620324 7.62683782,11.9837282 L7.54261211,11.998192 L7.45738789,11.998192 C7.37233008,11.9909601 7.28877005,11.9620324 7.2156945,11.9114088 L7.14644661,11.8535534 L5.14644661,9.85355339 C4.95118446,9.65829124 4.95118446,9.34170876 5.14644661,9.14644661 C5.32001296,8.97288026 5.58943736,8.95359511 5.7843055,9.08859116 L5.85355339,9.14644661 L7.5,10.793 L13.1464466,5.14644661 C13.3417088,4.95118446 13.6582912,4.95118446 13.8535534,5.14644661 Z"></path>
</svg>