<svg xmlns="http://www.w3.org/2000/svg" viewBox="0 0 24 24">
	<path d="M13.2556141,2 C13.8140988,2 14.2905682,2.40617067 14.3725835,2.95684437 L14.3725835,2.95684437 L14.4975591,3.79652412 C15.0287053,3.96055458 15.5403242,4.17145089 16.0285101,4.42921304 L16.0285101,4.42921304 L16.7119703,3.92540519 C17.1611013,3.59343878 17.7859793,3.64030463 18.1804335,4.03475884 L18.1804335,4.03475884 L19.9613357,5.815661 C20.3557899,6.21011521 20.4026557,6.83499317 20.0706893,7.28412419 L20.0706893,7.28412419 L19.5668815,7.96758446 C19.8285491,8.45577036 20.0394454,8.96738918 20.1995704,9.49853544 L20.1995704,9.49853544 L21.0353447,9.62351103 L21.151819,9.64700943 C21.6458959,9.77401177 21.9963735,10.2218875 22,10.7404804 L22,10.7404804 L22,13.2595196 C22,13.8140988 21.5899238,14.2905682 21.0392501,14.3725835 L21.0392501,14.3725835 L20.1995704,14.4975591 C20.0394454,15.0287053 19.8285491,15.5403242 19.5668815,16.0285101 L19.5668815,16.0285101 L20.0706893,16.7119703 C20.4026557,17.1611013 20.3557899,17.7859793 19.9613357,18.1804335 L19.9613357,18.1804335 L18.1804335,19.9613357 C17.7859793,20.3557899 17.1611013,20.4026557 16.7119703,20.0706893 L16.7119703,20.0706893 L16.0285101,19.5668815 C15.5403242,19.8285491 15.0287053,20.0394454 14.4975591,20.1995704 L14.4975591,20.1995704 L14.368678,21.0392501 C14.2866628,21.5899238 13.8140988,22 13.2556141,22 L13.2556141,22 L10.7365749,22 C10.1819957,22 9.70552626,21.5899238 9.62351103,21.0392501 L9.62351103,21.0392501 L9.49853544,20.1995704 C8.96738918,20.0394454 8.45577036,19.8285491 7.96758446,19.5668815 L7.96758446,19.5668815 L7.28412419,20.0706893 C6.83499317,20.4026557 6.21011521,20.3557899 5.815661,19.9613357 L5.815661,19.9613357 L4.03475884,18.1804335 C3.64030463,17.7859793 3.59343878,17.1611013 3.92540519,16.7119703 L3.92540519,16.7119703 L4.42921304,16.0285101 C4.1675454,15.5403242 3.95664909,15.0287053 3.79652412,14.4975591 L3.79652412,14.4975591 L2.96074985,14.3725835 C2.41007616,14.2905682 2,13.8180043 2,13.2595196 L2,13.2595196 L2,10.7404804 C2,10.1819957 2.41007616,9.70552626 2.95684437,9.62351103 L2.95684437,9.62351103 L3.79652412,9.49853544 C3.96055458,8.96738918 4.17145089,8.45577036 4.43311853,7.97148994 L4.43311853,7.97148994 L3.92931068,7.28802968 C3.59734427,6.83889865 3.64421012,6.2140207 4.03866432,5.81956649 L4.03866432,5.81956649 L5.815661,4.03475884 C6.21011521,3.64030463 6.83499317,3.59343878 7.28412419,3.92540519 L7.28412419,3.92540519 L7.96758446,4.42921304 C8.45577036,4.1675454 8.96738918,3.95664909 9.49853544,3.79652412 L9.49853544,3.79652412 L9.62351103,2.96074985 C9.70552626,2.40617067 10.1780902,2 10.7365749,2 L10.7365749,2 Z M12.9939465,3.42550283 L10.994337,3.42550283 L10.7639133,4.9603593 C9.70943175,5.1439172 8.73305995,5.55789885 7.88947471,6.1515329 L7.88947471,6.1515329 L6.6397188,5.22983792 L5.22593244,6.64362429 L6.14762742,7.8933802 C5.55399336,8.73696544 5.14001172,9.71333724 4.95645382,10.7678188 L4.95645382,10.7678188 L3.42159734,10.9982425 L3.42159734,12.997852 L4.95645382,13.2282757 C5.14001172,14.2827573 5.55399336,15.2591291 6.14762742,16.1027143 L6.14762742,16.1027143 L5.22593244,17.3524702 L6.6397188,18.7662566 L7.88947471,17.8445616 C8.73305995,18.4381957 9.70943175,18.8521773 10.7639133,19.0357352 L10.7639133,19.0357352 L10.994337,20.5705917 L12.9939465,20.5705917 L13.2243702,19.0357352 C14.2788518,18.8521773 15.2552236,18.4381957 16.0988088,17.8445616 L16.0988088,17.8445616 L17.3485647,18.7662566 L18.7623511,17.3524702 L17.8406561,16.1027143 C18.4342902,15.2591291 18.8482718,14.2827573 19.0318297,13.2282757 L19.0318297,13.2282757 L20.5666862,12.997852 L20.5666862,10.9982425 L19.0318297,10.7678188 C18.8482718,9.71333724 18.4342902,8.73696544 17.8406561,7.8933802 L17.8406561,7.8933802 L18.7623511,6.64362429 L17.3485647,5.22983792 L16.0988088,6.1515329 C15.2552236,5.55789885 14.2788518,5.1439172 13.2243702,4.9603593 L13.2243702,4.9603593 L12.9939465,3.42550283 Z M11.9980473,8.24877954 C14.0679555,8.24877954 15.747315,9.92813904 15.747315,11.9980473 C15.747315,14.0679555 14.0679555,15.747315 11.9980473,15.747315 C9.92813904,15.747315 8.24877954,14.0679555 8.24877954,11.9980473 C8.24877954,9.92813904 9.92813904,8.24877954 11.9980473,8.24877954 Z M11.9980473,9.49853544 C10.6194103,9.49853544 9.49853544,10.6194103 9.49853544,11.9980473 C9.49853544,13.3766842 10.6194103,14.4975591 11.9980473,14.4975591 C13.3766842,14.4975591 14.4975591,13.3766842 14.4975591,11.9980473 C14.4975591,10.6194103 13.3766842,9.49853544 11.9980473,9.49853544 Z"></path>
</svg>