<svg xmlns="http://www.w3.org/2000/svg" viewBox="0 0 24 24">
	<path d="M20.25,1 L3.75,1 C2.23320313,1 1,2.23320313 1,3.75 L1,20.25 C1,21.7667969 2.23320313,23 3.75,23 L20.25,23 C21.7667969,23 23,21.7667969 23,20.25 L23,3.75 C23,2.23320313 21.7667969,1 20.25,1 Z M12,3 L12,10.875 L15.375,7.5 L18.75,10.875 L18.75,3 L20.0065677,3 C20.5552252,3 21,3.44494629 21,3.99339768 L21,20.0066023 C21,20.5552407 20.5550537,21 20.0066023,21 L3.99339768,21 C3.44475929,21 3,20.5550537 3,20.0066023 L3,3.99339768 C3,3.44475929 3.4463114,3 3.99754465,3 L12,3 Z M8,12 C7.44771525,12 7,12.4477153 7,13 L7,13 L7,15 L5,15 C4.44771525,15 4,15.4477153 4,16 C4,16.5522847 4.44771525,17 5,17 L5,17 L7,17 L7,19 C7,19.5522847 7.44771525,20 8,20 C8.55228475,20 9,19.5522847 9,19 L9,19 L9,17 L11,17 C11.5522847,17 12,16.5522847 12,16 C12,15.4477153 11.5522847,15 11,15 L11,15 L9,15 L9,13 C9,12.4477153 8.55228475,12 8,12 Z"></path>
</svg>