<svg xmlns="http://www.w3.org/2000/svg" viewBox="0 0 16 16">
	<path d="M15.128753,4.3659375 C13.4272843,6.322125 9.911003,10.3046875 8.759378,11.646875 C8.575003,11.859375 8.303128,11.996875 8.000003,11.996875 C7.725003,11.996875 7.475003,11.884375 7.293753,11.703125 C5.878128,10.2875 5.709378,10.11875 4.293753,8.703125 C4.112503,8.521875 4.000003,8.271875 4.000003,7.996875 C4.000003,7.44375 4.446878,6.996875 5.000003,6.996875 C5.275003,6.996875 5.525003,7.109375 5.706253,7.290625 C6.818753,8.403125 7.162503,8.746875 7.943753,9.528125 C9.41203425,7.81559375 12.6587843,4.16396875 13.9591905,2.6631875 C12.4944405,1.02871875 10.367503,0 8.000003,0 C3.58172175,0 3.00000011e-06,3.58171875 3.00000011e-06,8 C3.00000011e-06,12.4182812 3.58172175,16 8.000003,16 C12.4182843,16 16.000003,12.4182812 16.000003,8 C16.000003,6.69146875 15.685753,5.45640625 15.128753,4.3659375"></path>
</svg>