<svg xmlns="http://www.w3.org/2000/svg" viewBox="0 0 24 24">
	<path d="M18.6642587,5.305 C16.2771986,2.1475 12.9577358,2 12.1210343,2 L11.7163551,2 C10.7429377,2 7.22386967,2.2625 5.08836684,5.7125 C4.83954385,6.115 5.17859936,6.48 5.33992416,6.695 C7.72971861,9.8525 11.0874619,10 11.9351006,10 L12.3425141,10 C13.3049942,10 16.7775789,9.7375 18.9103474,6.2875 C19.1591704,5.885 18.8283178,5.52 18.6642587,5.305 Z M11.921429,7.4375 C11.1503512,7.4375 10.5269265,6.8675 10.5269265,6.1625 C10.5269265,5.4575 11.1503512,4.8875 11.921429,4.8875 C12.6925069,4.8875 13.3159315,5.4575 13.3159315,6.1625 C13.3159315,6.8675 12.6925069,7.4375 11.921429,7.4375 Z M6.53208707,6.015 C7.26488445,4.9625 8.2273646,4.1975 9.40038728,3.74 C9.58085231,3.67 9.75858302,3.61 9.93084509,3.5575 C9.03398859,4.1325 8.44611009,5.085 8.44611009,6.1625 C8.44611009,6.905 8.72501059,7.5875 9.19257907,8.13 C8.3011912,7.735 7.35238265,7.0825 6.53208707,6.015 Z M14.461611,8.3325 C15.0412866,7.765 15.3994823,7.0025 15.3994823,6.1625 C15.3994823,5.0575 14.7815263,4.0825 13.843655,3.5125 C14.9619913,3.815 16.3346193,4.4925 17.4802987,5.985 C16.5752393,7.29 15.4487,7.975 14.461611,8.3325 Z"></path>
	<path d="M20,11 C21.1045695,11 22,11.8954305 22,13 L22,21 C22,22.1045695 21.1045695,23 20,23 L4,23 C2.8954305,23 2,22.1045695 2,21 L2,13 C2,11.8954305 2.8954305,11 4,11 L20,11 Z M19,13 L5,13 C4.44771525,13 4,13.4477153 4,14 L4,14 L4,20 C4,20.5522847 4.44771525,21 5,21 L5,21 L19,21 C19.5522847,21 20,20.5522847 20,20 L20,20 L20,14 C20,13.4477153 19.5522847,13 19,13 L19,13 Z"></path>
	<path d="M12,14 C12.5522847,14 13,14.4477153 13,15 L13,16 L14,16 C14.5522847,16 15,16.4477153 15,17 C15,17.5522847 14.5522847,18 14,18 L13,18 L13,19 C13,19.5522847 12.5522847,20 12,20 C11.4477153,20 11,19.5522847 11,19 L11,18 L10,18 C9.44771525,18 9,17.5522847 9,17 C9,16.4477153 9.44771525,16 10,16 L11,16 L11,15 C11,14.4477153 11.4477153,14 12,14 Z"></path>
</svg>