<svg xmlns="http://www.w3.org/2000/svg" viewBox="0 0 24 24">
	<path d="M16.9835679,0.998328235 L5,0.998328235 C3.8954305,0.998328235 3,1.89375874 3,2.99832823 L3,8.00404425 C3,8.556329 3.44771525,9.00404425 4,9.00404425 C4.55228475,9.00404425 5,8.556329 5,8.00404425 L5,4 C5,3.44771525 5.44771525,3 6,3 L16.9835679,3 C17.5363143,3 17.9844038,2.55191051 17.9844038,1.99916412 C17.9844038,1.44641772 17.5363143,0.998328235 16.9835679,0.998328235 Z"></path>
	<path d="M20,11 C21.1045695,11 22,11.8954305 22,13 L22,21 C22,22.1045695 21.1045695,23 20,23 L4,23 C2.8954305,23 2,22.1045695 2,21 L2,13 C2,11.8954305 2.8954305,11 4,11 L20,11 Z M19,13 L5,13 C4.44771525,13 4,13.4477153 4,14 L4,14 L4,20 C4,20.5522847 4.44771525,21 5,21 L5,21 L19,21 C19.5522847,21 20,20.5522847 20,20 L20,20 L20,14 C20,13.4477153 19.5522847,13 19,13 L19,13 Z"></path>
	<path d="M12,14 C12.5522847,14 13,14.4477153 13,15 L13,16 L14,16 C14.5522847,16 15,16.4477153 15,17 C15,17.5522847 14.5522847,18 14,18 L13,18 L13,19 C13,19.5522847 12.5522847,20 12,20 C11.4477153,20 11,19.5522847 11,19 L11,18 L10,18 C9.44771525,18 9,17.5522847 9,17 C9,16.4477153 9.44771525,16 10,16 L11,16 L11,15 C11,14.4477153 11.4477153,14 12,14 Z"></path>
	<path d="M19,4 C20.1045695,4 21,4.8954305 21,6 L21,6 L21,8 C21,9.1045695 20.1045695,10 19,10 L19,10 L8.00556204,10 C6.90099254,10 6.00556204,9.1045695 6.00556204,8 L6.00556204,8 L6.00556204,6 C6.00556204,4.8954305 6.90099254,4 8.00556204,4 L8.00556204,4 Z M18,6 L8.99636966,6 C8.44408491,6 7.99636966,6.44771525 7.99636966,7 C7.99636966,7.55228475 8.44408491,8 8.99636966,8 L18,8 C18.5522847,8 19,7.55228475 19,7 C19,6.44771525 18.5522847,6 18,6 Z"></path>
</svg>