<svg xmlns="http://www.w3.org/2000/svg" viewBox="0 0 24 24">
	<path d="M3.001 17.009h1.998v5.986H3.001V17.01z"/>
	<path d="M1.005 19H6.99v2H1.005v-1.998zM5 5v11H3V4.027a1 1 0 01.882-.993l.116-.007 7.988-.014L10 5H5zm7-5l3 3H9l3-3zm.014 3.014L19.998 3H20a1 1 0 01.993.883L21 4v15.998a1 1 0 01-.883.994l-.117.006H8V19h11V5h-5l-1.986-1.986z"/>
	<path transform="rotate(-90, 12, 12)" d="M12 7c-2.756 0-5 2.242-5 5s2.242 5 5 5c2.756 0 5-2.244 5-5s-2.244-5-5-5zm-3.75 5A3.754 3.754 0 0112 8.25v7.5A3.754 3.754 0 018.25 12z"/>
</svg>