<svg xmlns="http://www.w3.org/2000/svg" viewBox="0 0 24 24">
    <path d="M14.984 4c.57 0 1.032.46 1.032 1.027v1.961H18c1.103 0 2 .863 2 1.961v6.018a1.998 1.998 0 01-2 1.992h-.984v2.001c0 .567-.432 1.028-1 1.028H8.05a1.03 1.03 0 01-1.031-1.028v-2H6c-1.103 0-2-.894-2-1.992V8.949c0-1.098.897-1.96 2-1.96h2.013V5.026A1.03 1.03 0 019.043 4zm0 10.967H9.02v2.966h5.969l-.004-2.966zM18 8.98H6v5.986h1.019v-.969a1.03 1.03 0 011.031-1.026h7.938c.568 0 1.03.46 1.03 1.027v.969H18V8.98zM7.5 9.986a.499.499 0 11.002.998.499.499 0 01-.002-.998zm2.01 0a.49.49 0 11.001.98.49.49 0 01-.002-.98zm4.506-3.994h-4.003v1.009h4.003V5.992z"></path>
</svg>
