<svg xmlns="http://www.w3.org/2000/svg" viewBox="0 0 24 24">
	<path d="M21,20 C21.5522847,20 22,20.4477153 22,21 C22,21.5522847 21.5522847,22 21,22 L3,22 C2.44771525,22 2,21.5522847 2,21 C2,20.4477153 2.44771525,20 3,20 L21,20 Z M21,17 C21.5522847,17 22,17.4477153 22,18 C22,18.5522847 21.5522847,19 21,19 L3,19 C2.44771525,19 2,18.5522847 2,18 C2,17.4477153 2.44771525,17 3,17 L21,17 Z M21,14 C21.5522847,14 22,14.4477153 22,15 C22,15.5522847 21.5522847,16 21,16 L3,16 C2.44771525,16 2,15.5522847 2,15 C2,14.4477153 2.44771525,14 3,14 L21,14 Z M12.9809069,2 L12.9809069,3.1127907 C13.725537,3.27906977 14.2840095,3.68837209 14.7995227,4.28953488 L14.7995227,4.28953488 L13.6109785,5.2872093 C13.0238663,4.69883721 12.7088305,4.49418605 12.0214797,4.49418605 C11.4486874,4.49418605 11.0763723,4.82674419 11.0763723,5.2744186 C11.0763723,5.81162791 11.4200477,6.08023256 12.5083532,6.60465116 C14.2410501,7.43604651 15,7.98604651 15,9.49534884 C15,10.6976744 14.2553699,11.5802326 12.9809069,11.8872093 L12.9809069,11.8872093 L12.9809069,13 L11.176611,13 L11.176611,11.9127907 C10.2458234,11.7081395 9.54415274,11.1837209 9,10.5825581 L9,10.5825581 L10.2171838,9.48255814 C10.8186158,10.1732558 11.4630072,10.505814 12.0644391,10.505814 C12.8090692,10.505814 13.1813842,10.1348837 13.1813842,9.53372093 C13.1813842,9.02209302 12.823389,8.67674419 11.6491647,8.13953488 C10.1599045,7.44883721 9.25775656,6.83488372 9.25775656,5.35116279 C9.25775656,4.26395349 9.98806683,3.39418605 11.176611,3.1127907 L11.176611,3.1127907 L11.176611,2 L12.9809069,2 Z"></path>
</svg>