<svg xmlns="http://www.w3.org/2000/svg" viewBox="0 0 24 24">
	<path d="M3.001 17.009h1.998v5.986H3.001V17.01z"/>
	<path d="M1.005 19H6.99v2H1.005v-1.998zM5 5v11H3V4.027a1 1 0 01.882-.993l.116-.007 7.988-.014L10 5H5zm7-5l3 3H9l3-3zm.014 3.014L19.998 3H20a1 1 0 01.993.883L21 4v15.998a1 1 0 01-.883.994l-.117.006H8V19h11V5h-5l-1.986-1.986z"/>
	<path d="M16.455 9.729c-1.063 1.222-3.26 3.711-3.98 4.55a.623.623 0 01-.916.035L9.684 12.44a.624.624 0 11.882-.882l1.399 1.398c.918-1.07 2.947-3.353 3.76-4.29a5 5 0 10.731 1.064"/>
</svg>