<svg xmlns="http://www.w3.org/2000/svg" viewBox="0 0 24 24">
	<path d="M12,7 C13.603125,7 15.1101562,7.6234375 16.2421875,8.7578125 C17.3765625,9.88984375 18,11.396875 18,13 C18,14.603125 17.3765625,16.1078125 16.2421875,17.2421875 C15.1101562,18.3765625 13.603125,19 12,19 C10.396875,19 8.8921875,18.3765625 7.7578125,17.2421875 C6.6234375,16.1101562 6,14.603125 6,13 C6,11.396875 6.6234375,9.88984375 7.7578125,8.7578125 C8.88984375,7.6234375 10.396875,7 12,7 Z M12,8 C9.2421875,8 7,10.2421875 7,13 C7,15.7578125 9.2421875,18 12,18 C14.7578125,18 17,15.7578125 17,13 C17,10.2421875 14.7578125,8 12,8 Z M12.0717452,9 C12.6884374,9 13,9.32909276 13,9.95395385 L13,12.9077848 C13,13.5326459 12.9460392,13.6236444 12.5282847,13.9804857 C12.3508321,14.1320638 10.9972804,15.2710691 10.390422,15.7625118 C10.2099209,15.9154716 9.78678449,16.2809745 9.22507977,15.6094422 C8.84662786,15.1569932 8.96623813,14.6983644 9.42819659,14.2780648 C10.4453311,13.4708132 11.0140654,13.0140532 11.1343995,12.9077848 C11.1343995,12.2558368 11.1343995,11.2712264 11.1343995,9.95395385 C11.1343995,9.32909276 11.455053,9 12.0717452,9 Z"></path>
	<path d="M8.40082134,3.00349521 L4.98833353,3.02340139 C3.88833607,3.02981804 3,3.92335118 3,5.02336736 L3,21 C3,22.1045695 3.8954305,23 5,23 L19,23 C20.1045695,23 21,22.1045695 21,21 L21,5 C21,3.8954305 20.1045695,3 19,3 L15.6055513,3 C15.2107013,3 14.8246859,2.88312395 14.4961509,2.66410059 L13.1094004,1.73960026 C12.4376016,1.29173438 11.5623984,1.29173438 10.8905996,1.73960026 L9.49855526,2.66762982 C9.17332617,2.88444922 8.79169141,3.00121513 8.40082134,3.00349521 Z M12.7071068,3.70710678 L13.7071068,4.70710678 C13.8946432,4.89464316 14.1489971,5 14.4142136,5 L18,5 C18.5522847,5 19,5.44771525 19,6 L19,20 C19,20.5522847 18.5522847,21 18,21 L6,21 C5.44771525,21 5,20.5522847 5,20 L5,6 C5,5.44771525 5.44771525,5 6,5 L9.58578644,5 C9.85100293,5 10.1053568,4.89464316 10.2928932,4.70710678 L11.2928932,3.70710678 C11.6834175,3.31658249 12.3165825,3.31658249 12.7071068,3.70710678 Z"></path>
</svg>