<svg xmlns="http://www.w3.org/2000/svg" viewBox="0 0 24 24">
	<path d="M13.1469247,1.80284728 L21.1469247,7.40284728 C21.681578,7.77710463 22,8.38868353 22,9.04131112 L22,21 C22,22.1045695 21.1045695,23 20,23 L16,23 C14.8954305,23 14,22.1045695 14,21 L14,17.8290186 C14,17.2982358 13.789009,16.789222 13.4134995,16.4140913 L13,16.0010091 C12.447552,15.4491186 11.552448,15.4491186 11,16.0010091 L10.5842663,16.4163232 C10.2100788,16.7901332 9.99919929,17.2969453 9.99777309,17.8258576 L9.98919952,21.005393 C9.98622675,22.1078529 9.09167079,23 7.98920679,23 L4,23 C2.8954305,23 2,22.1045695 2,21 L2,9.04131112 C2,8.38868353 2.31842196,7.77710463 2.85307531,7.40284728 L10.8530753,1.80284728 C11.5417156,1.32079907 12.4582844,1.32079907 13.1469247,1.80284728 Z M12.5968964,3.49235375 C12.2426113,3.22877821 11.7573887,3.22877821 11.4031036,3.49235375 L11.4031036,3.49235375 L4.40192299,8.70098357 C4.14895749,8.88918092 3.99956346,9.18565832 3.99882212,9.50095063 L3.99882212,9.50095063 L3.97419216,19.9760269 C3.97291445,20.5194337 4.40582118,20.9644056 4.94905787,20.9780623 L4.94905787,20.9780623 L6.94959347,21.0283547 L6.94959347,21.0283547 L6.97472499,21.0286706 C7.52700974,21.0286706 7.97472499,20.5809553 7.97472499,20.0286706 L7.97472499,20.0286706 L7.97472499,16.4326413 C7.97472499,16.1139284 8.12664681,15.8143038 8.38374914,15.6259521 L8.38374914,15.6259521 L11.4011058,13.4154541 C11.7567235,13.1549307 12.2409907,13.1580096 12.593267,13.4230338 L12.593267,13.4230338 L15.693438,15.7553515 C15.9445467,15.9442654 16.0922526,16.2402255 16.0922526,16.5544611 L16.0922526,16.5544611 L16.0922526,19.9534969 C16.0922526,20.5057817 16.5399679,20.9534969 17.0922526,20.9534969 L17.0922526,20.9534969 L18.9802546,20.9534969 C19.5318355,20.9534969 19.9792587,20.5068795 19.9802529,19.9552994 L19.9802529,19.9552994 L19.9990923,9.50355201 C19.9996633,9.18679696 19.8501291,8.8885014 19.5959903,8.69943115 L19.5959903,8.69943115 Z"></path>
</svg>