<svg xmlns="http://www.w3.org/2000/svg" viewBox="0 0 476 36">
	<path d="M467.535,0.779 L475.135,0.779 L475.135,34.833 L467.535,34.833 L467.535,21.435 L453.991,21.435 L453.991,34.833 L446.392,34.833 L446.392,0.779 L453.991,0.779 L453.991,15.004 L467.535,15.004 L467.535,0.779 Z M431.193,7.356 L431.193,34.833 L423.593,34.833 L423.593,7.356 L413.946,7.356 L413.946,0.779 L440.838,0.779 L440.838,7.356 L431.193,7.356 Z M389.101,34.833 L389.101,0.779 L396.7,0.779 L396.7,28.06 L411.218,28.06 L411.218,34.833 L389.101,34.833 Z M366.789,10.913 L362.502,20.802 L371.028,20.802 L366.789,10.913 Z M377.068,34.833 L373.902,27.476 L359.627,27.476 L356.461,34.833 L348.374,34.833 L363.086,0.779 L370.443,0.779 L385.154,34.833 L377.068,34.833 Z M345.499,0.779 L345.499,7.55 L328.546,7.55 L328.546,14.566 L343.794,14.566 L343.794,21.045 L328.546,21.045 L328.546,28.109 L346.035,28.109 L346.035,34.833 L320.946,34.833 L320.946,0.779 L345.499,0.779 Z M304.967,0.779 L312.567,0.779 L312.567,34.833 L304.967,34.833 L304.967,21.435 L291.424,21.435 L291.424,34.833 L283.823,34.833 L283.823,0.779 L291.424,0.779 L291.424,15.004 L304.967,15.004 L304.967,0.779 L304.967,0.779 Z" fill="#003D78"></path>
	<path d="M106.544,0.779 L106.544,7.55 L89.59,7.55 L89.59,14.566 L104.838,14.566 L104.838,21.045 L89.59,21.045 L89.59,28.109 L107.079,28.109 L107.079,34.833 L81.99,34.833 L81.99,0.779 L106.544,0.779 Z M66.011,0.779 L73.611,0.779 L73.611,34.833 L66.011,34.833 L49.788,13.494 L49.788,34.833 L42.189,34.833 L42.189,0.779 L49.301,0.779 L66.011,22.702 L66.011,0.779 Z M30.594,30.131 C27.151,33.493 22.913,35.173 17.879,35.173 C12.845,35.173 8.607,33.493 5.164,30.131 C1.721,26.77 0,22.587 0,17.586 C0,12.585 1.721,8.403 5.164,5.042 C8.607,1.68 12.845,0 17.879,0 C22.913,0 27.151,1.68 30.594,5.042 C34.036,8.403 35.757,12.585 35.757,17.586 C35.757,22.587 34.036,26.77 30.594,30.131 Z M254.984,13.397 L245.776,32.006 L241.245,32.006 L232.087,13.397 L232.087,34.833 L224.486,34.833 L224.486,0.779 L234.766,0.779 L243.535,19.486 L252.353,0.779 L262.583,0.779 L262.583,34.833 L254.984,34.833 L254.984,13.397 Z M202.174,10.913 L197.887,20.802 L206.413,20.802 L202.174,10.913 Z M212.454,34.833 L209.287,27.476 L195.013,27.476 L191.847,34.833 L183.76,34.833 L198.472,0.779 L205.828,0.779 L220.541,34.833 L212.454,34.833 Z M180.885,0.779 L180.885,7.55 L163.932,7.55 L163.932,14.566 L179.18,14.566 L179.18,21.045 L163.932,21.045 L163.932,28.109 L181.421,28.109 L181.421,34.833 L156.332,34.833 L156.332,0.779 L180.885,0.779 Z M141.132,7.356 L141.132,34.833 L133.532,34.833 L133.532,7.356 L123.886,7.356 L123.886,0.779 L150.778,0.779 L150.778,7.356 L141.132,7.356 Z M28.012,17.611 C28.012,14.574 27.037,11.984 25.089,9.84 C23.14,7.697 20.745,6.626 17.903,6.626 C15.061,6.626 12.666,7.697 10.717,9.84 C8.769,11.984 7.795,14.574 7.795,17.611 C7.795,20.648 8.769,23.229 10.717,25.357 C12.666,27.484 15.061,28.547 17.903,28.547 C20.745,28.547 23.14,27.484 25.089,25.357 C27.037,23.229 28.012,20.648 28.012,17.611 L28.012,17.611 Z" fill="#64A336"></path>
</svg>