<svg xmlns="http://www.w3.org/2000/svg" viewBox="0 0 24 24">
	<path d="M8.40082134,3.00349521 L4.98833353,3.02340139 C3.88833607,3.02981804 3,3.92335118 3,5.02336736 L3,21 C3,22.1045695 3.8954305,23 5,23 L19,23 C20.1045695,23 21,22.1045695 21,21 L21,5 C21,3.8954305 20.1045695,3 19,3 L15.6055513,3 C15.2107013,3 14.8246859,2.88312395 14.4961509,2.66410059 L13.1094004,1.73960026 C12.4376016,1.29173438 11.5623984,1.29173438 10.8905996,1.73960026 L9.49855526,2.66762982 C9.17332617,2.88444922 8.79169141,3.00121513 8.40082134,3.00349521 Z M12.7071068,3.70710678 L13.7071068,4.70710678 C13.8946432,4.89464316 14.1489971,5 14.4142136,5 L18,5 C18.5522847,5 19,5.44771525 19,6 L19,20 C19,20.5522847 18.5522847,21 18,21 L6,21 C5.44771525,21 5,20.5522847 5,20 L5,6 C5,5.44771525 5.44771525,5 6,5 L9.58578644,5 C9.85100293,5 10.1053568,4.89464316 10.2928932,4.70710678 L11.2928932,3.70710678 C11.6834175,3.31658249 12.3165825,3.31658249 12.7071068,3.70710678 Z"></path>
	<path d="M12.9809069,18 L12.9809069,16.8872093 C14.2553699,16.5802326 15,15.6976744 15,14.4953488 C15,12.9860465 14.2410501,12.4360465 12.5083532,11.6046512 C11.4200477,11.0802326 11.0763723,10.8116279 11.0763723,10.2744186 C11.0763723,9.82674419 11.4486874,9.49418605 12.0214797,9.49418605 C12.7088305,9.49418605 13.0238663,9.69883721 13.6109785,10.2872093 L14.7995227,9.28953488 C14.2840095,8.68837209 13.725537,8.27906977 12.9809069,8.1127907 L12.9809069,7 L11.176611,7 L11.176611,8.1127907 C9.98806683,8.39418605 9.25775656,9.26395349 9.25775656,10.3511628 C9.25775656,11.8348837 10.1599045,12.4488372 11.6491647,13.1395349 C12.823389,13.6767442 13.1813842,14.022093 13.1813842,14.5337209 C13.1813842,15.1348837 12.8090692,15.505814 12.0644391,15.505814 C11.4630072,15.505814 10.8186158,15.1732558 10.2171838,14.4825581 L9,15.5825581 C9.54415274,16.1837209 10.2458234,16.7081395 11.176611,16.9127907 L11.176611,18 L12.9809069,18 Z"></path>
</svg>