<svg xmlns="http://www.w3.org/2000/svg" viewBox="0 0 194 224">
	<path d="M68.354 176.437l-.063 6.743-46.803-23.872c0-20.656.218-40.456.528-60.662l46.659 24.151-.321 53.64zm21.52-36.701l.015.008.062-6.713.037-3.229.165-17.618-.114-.062.006-.898-24.392-12.597L.188 62.403c0 28.743.306 57.596-.131 86.262L0 151.893l.188 17.873v1.242l23.748 12.086 65.46 36.734.478-80.092zM159.834 191.178l-.138-47.856-21.49 12.313.363 47.726 21.265-12.183zM60.296 43.33l77.383 43.106.228 29.816 21.674-12.307-.085-29.241-75.004-42.603 34.05-19.883L96.792 0 6.187 51.002l20.75 11.893L60.296 43.33z" fill="#64A336"></path>
	<path fill="#003D78" d="M125.593 211.51v-56.869l46.22-26.483.554 55.841 21.63-12.39V54.603l-63.312-35.565-21.892 12.163 62.403 34.802.39 39.327-45.993 26.115v-36.94L62.282 58.941 40.389 71.104l62.404 34.801 1.17 117.997 21.63-12.392"></path>
</svg>