<svg xmlns="http://www.w3.org/2000/svg" viewBox="0 0 476 286">
	<path d="M467.535 250.441h7.6v34.054h-7.6v-13.398h-13.544v13.398h-7.599v-34.054h7.599v14.225h13.544v-14.225zm-36.342 6.577v27.477h-7.6v-27.477h-9.647v-6.577h26.892v6.577h-9.645zm-42.092 27.477v-34.054h7.599v27.281h14.518v6.773h-22.117zm-22.312-23.92l-4.287 9.889h8.526l-4.239-9.889zm10.279 23.92l-3.166-7.357h-14.275l-3.166 7.357h-8.087l14.712-34.054h7.357l14.711 34.054h-8.086zm-31.569-34.054v6.771h-16.953v7.016h15.248v6.479h-15.248v7.064h17.489v6.724h-25.089v-34.054h24.553zm-40.532 0h7.6v34.054h-7.6v-13.398h-13.543v13.398h-7.601v-34.054h7.601v14.225h13.543v-14.225z" fill="#003D78"></path>
	<path d="M106.544 250.441v6.771H89.59v7.016h15.248v6.479H89.59v7.064h17.489v6.724H81.99v-34.054h24.554zm-40.533 0h7.6v34.054h-7.6l-16.223-21.339v21.339h-7.599v-34.054h7.112l16.71 21.923v-21.923zm-35.417 29.352c-3.443 3.362-7.681 5.042-12.715 5.042s-9.272-1.68-12.715-5.042C1.721 276.432 0 272.249 0 267.248s1.721-9.183 5.164-12.544c3.443-3.362 7.681-5.042 12.715-5.042s9.272 1.68 12.715 5.042c3.442 3.361 5.163 7.543 5.163 12.544s-1.721 9.184-5.163 12.545zm224.39-16.734l-9.208 18.609h-4.531l-9.158-18.609v21.436h-7.601v-34.054h10.28l8.769 18.707 8.818-18.707h10.23v34.054h-7.599v-21.436zm-52.81-2.484l-4.287 9.889h8.526l-4.239-9.889zm10.28 23.92l-3.167-7.357h-14.274l-3.166 7.357h-8.087l14.712-34.054h7.356l14.713 34.054h-8.087zm-31.569-34.054v6.771h-16.953v7.016h15.248v6.479h-15.248v7.064h17.489v6.724h-25.089v-34.054h24.553zm-39.753 6.577v27.477h-7.6v-27.477h-9.646v-6.577h26.892v6.577h-9.646zm-113.12 10.255c0-3.037-.975-5.627-2.923-7.771-1.949-2.143-4.344-3.214-7.186-3.214-2.842 0-5.237 1.071-7.186 3.214-1.948 2.144-2.922 4.734-2.922 7.771s.974 5.618 2.922 7.746c1.949 2.127 4.344 3.19 7.186 3.19 2.842 0 5.237-1.063 7.186-3.19 1.948-2.128 2.923-4.709 2.923-7.746z" fill="#64A336"></path>
	<path d="M208.801 176.437l-.063 6.743-46.803-23.872c0-20.656.218-40.456.528-60.662l46.659 24.151-.321 53.64zm21.52-36.701l.015.008.062-6.713.037-3.229.165-17.618-.114-.062.006-.898L206.1 98.627l-65.465-36.224c0 28.743.306 57.596-.131 86.262l-.057 3.228.188 17.873v1.242l23.748 12.086 65.46 36.734.478-80.092zM300.281 191.178l-.138-47.856-21.49 12.313.363 47.726 21.265-12.183zM200.743 43.33l77.383 43.106.228 29.816 21.674-12.307-.085-29.241-75.004-42.603 34.05-19.883L237.239 0l-90.605 51.002 20.75 11.893 33.359-19.565z" fill="#64A336"></path>
	<path fill="#003D78" d="M266.04 211.51v-56.869l46.22-26.483.554 55.841 21.63-12.39V54.603l-63.312-35.565-21.892 12.163 62.403 34.802.39 39.327-45.993 26.115v-36.94l-63.311-35.564-21.893 12.163 62.404 34.801 1.17 117.997 21.63-12.392"></path>
</svg>