<svg xmlns="http://www.w3.org/2000/svg" viewBox="0 0 24 24">
	<path d="M18,4 C19.09375,4 19.98125,4.8875 19.98125,5.98125 L19.98125,5.98125 L19.98125,17.003125 L16.98125,20.003125 L5.98125,20.003125 C4.8875,20.003125 4,18.959375 4,17.865625 L4,17.865625 L4,5.98125 C4,4.8875 4.8875,4 5.98125,4 L5.98125,4 Z M17.98125,6 L6,6 L6,17.8625 C6,17.903125 6.03125,17.9625 6.0625,18 L6.0625,18 L13.98125,18 L13.98125,14 L17.98125,14 L17.98125,6 Z M17.98125,16 L15.98125,16 L15.98125,18 L17.98125,16 Z M11.990625,14 L11.990625,15 L6.990625,15 L6.990625,14 L11.990625,14 Z M13.990625,12 L13.990625,13 L6.990625,13 L6.990625,12 L13.990625,12 Z M16.990625,10 L16.990625,11 L6.990625,11 L6.990625,10 L16.990625,10 Z M14.990625,8 L14.990625,9 L6.990625,9 L6.990625,8 L14.990625,8 Z"></path>
</svg>