<svg xmlns="http://www.w3.org/2000/svg" viewBox="0 0 24 24">
    <path d="M19.4 15.4l-.1-.2c-.7-1.1-4-1.7-4.1-1.7h-.4c-.5.2-1 .5-1.6 1.1-.8-.5-1.6-1.2-2.1-1.7s-1.3-1.5-1.6-2.2c.6-.7 1.1-1.2 1.2-2 0 0-.5-3.4-1.6-4.1L9 4.5c-.3-.2-.9-.5-1.6-.5-.1 0-.3 0-.5.1-.2 0-.4.1-.6.3-.5.3-1.5 1.1-1.9 2-.4 1-.2 5.9 3.5 9.8 3.5 3.6 7.6 3.8 8.3 3.8.2 0 .5 0 .7-.1H17.2c1-.5 1.8-1.3 2.2-1.8.8-1.1.2-2.3 0-2.7zM17.9 17c-.3.4-.8 1-1.3 1.2h-.4c-.6 0-4-.2-7-3.3C6.1 11.6 6 7.7 6.1 7.1c.2-.4.6-.8 1.2-1.2 0 0 0-.1.1-.1s.5.2.6.3h.1c.3.4.6 2 .7 2.6-.1.2-.6.6-.8.9h-.1c-.3.4-.4 1-.2 1.5.4 1 1.4 2.4 2.1 3.1.7.7 1.9 1.6 2.9 2.2.5.2 1.1.1 1.5-.3.4-.2.8-.7 1-.8.5.1 2.1.6 2.5.9h.1c.2.4.2.6.1.8z"></path>
</svg>